<svg xmlns="http://www.w3.org/2000/svg" version="1.1" xmlns:xlink="http://www.w3.org/1999/xlink" xmlns:svgjs="http://svgjs.dev/svgjs" width="1500" height="935" viewBox="0 0 1500 935"><g transform="matrix(1,0,0,1,-0.9090909090909918,0.3785425101214628)"><svg viewBox="0 0 396 247" data-background-color="#ffffff" preserveAspectRatio="xMidYMid meet" height="935" width="1500" xmlns="http://www.w3.org/2000/svg" xmlns:xlink="http://www.w3.org/1999/xlink"><g id="tight-bounds" transform="matrix(1,0,0,1,0.2400000000000091,-0.09999999999999432)"><svg viewBox="0 0 395.52 247.2" height="247.2" width="395.52"><g><svg></svg></g><g><svg viewBox="0 0 395.52 247.2" height="247.2" width="395.52"><g transform="matrix(1,0,0,1,81.06718600583089,47.215199999999996)"><svg viewBox="0 0 233.3856279883382 152.7696" height="152.7696" width="233.3856279883382"><g><svg viewBox="0 0 233.3856279883382 152.7696" height="152.7696" width="233.3856279883382"><g><svg viewBox="0 0 233.3856279883382 152.7696" height="152.7696" width="233.3856279883382"><g><svg viewBox="0 0 233.3856279883382 152.7696" height="152.7696" width="233.3856279883382"><g id="textblocktransform"><svg viewBox="0 0 233.3856279883382 152.7696" height="152.7696" width="233.3856279883382" id="textblock"><g><svg viewBox="0 0 233.3856279883382 152.7696" height="152.7696" width="233.3856279883382"><g transform="matrix(1,0,0,1,0,0)"><svg width="233.3856279883382" viewBox="-1.85 -34.3 52.4 34.3" height="152.7696" data-palette-color="#915eff"><path d="M-1.85 0L13.85-34.3 19.5-34.3 25.55 0 21 0 19.7-7.65 5.95-7.65 2.5 0-1.85 0ZM7.75-11.65L19.05-11.65 16.5-26.9Q16.3-28 16.25-30.7L16.25-30.7 16.05-30.7Q15.1-27.95 14.65-26.9L14.65-26.9 7.75-11.65ZM31.95 0L36.2-30.3 26.85-30.3 27.45-34.3 50.55-34.3 49.95-30.3 40.6-30.3 36.35 0 31.95 0Z" opacity="1" transform="matrix(1,0,0,1,0,0)" fill="#915eff" class="wordmark-text-0" data-fill-palette-color="primary" id="text-0"></path></svg></g></svg></g></svg></g></svg></g></svg></g></svg></g></svg></g><g><path d="M0 123.6c0-68.262 55.338-123.6 123.6-123.6 30.402 0 58.24 10.976 79.768 29.183l-11.147 0c-19.26-14.022-42.974-22.294-68.621-22.295-64.458 0-116.712 52.254-116.712 116.712 0 64.458 52.254 116.712 116.712 116.712 25.647 0 49.361-8.272 68.621-22.295l11.147 0c-21.528 18.206-49.366 29.183-79.768 29.183-68.262 0-123.6-55.338-123.6-123.6z" fill="#915eff" stroke="transparent" data-fill-palette-color="tertiary"></path></g></svg></g><defs></defs></svg><rect width="395.52" height="247.2" fill="none" stroke="none" visibility="hidden"></rect></g></svg></g></svg>